<svg height="74" width="74" xmlns="http://www.w3.org/2000/svg"><path d="m0 0h74v74h-74z" fill="#fff"/><path d="m0 0h2v2h-2zm2 0h2v2h-2zm2 0h2v2h-2zm2 0h2v2h-2zm2 0h2v2h-2zm2 0h2v2h-2zm2 0h2v2h-2zm6 0h2v2h-2zm12 0h2v2h-2zm2 0h2v2h-2zm2 0h2v2h-2zm2 0h2v2h-2zm2 0h2v2h-2zm4 0h2v2h-2zm2 0h2v2h-2zm2 0h2v2h-2zm4 0h2v2h-2zm6 0h2v2h-2zm4 0h2v2h-2zm2 0h2v2h-2zm2 0h2v2h-2zm2 0h2v2h-2zm2 0h2v2h-2zm2 0h2v2h-2zm2 0h2v2h-2zm-72 2h2v2h-2zm12 0h2v2h-2zm4 0h2v2h-2zm2 0h2v2h-2zm4 0h2v2h-2zm2 0h2v2h-2zm28 0h2v2h-2zm2 0h2v2h-2zm2 0h2v2h-2zm4 0h2v2h-2zm12 0h2v2h-2zm-72 2h2v2h-2zm4 0h2v2h-2zm2 0h2v2h-2zm2 0h2v2h-2zm4 0h2v2h-2zm6 0h2v2h-2zm2 0h2v2h-2zm2 0h2v2h-2zm6 0h2v2h-2zm4 0h2v2h-2zm8 0h2v2h-2zm2 0h2v2h-2zm2 0h2v2h-2zm8 0h2v2h-2zm4 0h2v2h-2zm4 0h2v2h-2zm4 0h2v2h-2zm2 0h2v2h-2zm2 0h2v2h-2zm4 0h2v2h-2zm-72 2h2v2h-2zm4 0h2v2h-2zm2 0h2v2h-2zm2 0h2v2h-2zm4 0h2v2h-2zm4 0h2v2h-2zm2 0h2v2h-2zm4 0h2v2h-2zm10 0h2v2h-2zm2 0h2v2h-2zm4 0h2v2h-2zm6 0h2v2h-2zm4 0h2v2h-2zm2 0h2v2h-2zm10 0h2v2h-2zm4 0h2v2h-2zm2 0h2v2h-2zm2 0h2v2h-2zm4 0h2v2h-2zm-72 2h2v2h-2zm4 0h2v2h-2zm2 0h2v2h-2zm2 0h2v2h-2zm4 0h2v2h-2zm8 0h2v2h-2zm4 0h2v2h-2zm2 0h2v2h-2zm2 0h2v2h-2zm2 0h2v2h-2zm8 0h2v2h-2zm2 0h2v2h-2zm2 0h2v2h-2zm2 0h2v2h-2zm2 0h2v2h-2zm4 0h2v2h-2zm6 0h2v2h-2zm4 0h2v2h-2zm4 0h2v2h-2zm2 0h2v2h-2zm2 0h2v2h-2zm4 0h2v2h-2zm-72 2h2v2h-2zm12 0h2v2h-2zm4 0h2v2h-2zm4 0h2v2h-2zm6 0h2v2h-2zm2 0h2v2h-2zm2 0h2v2h-2zm2 0h2v2h-2zm2 0h2v2h-2zm2 0h2v2h-2zm4 0h2v2h-2zm2 0h2v2h-2zm2 0h2v2h-2zm4 0h2v2h-2zm2 0h2v2h-2zm2 0h2v2h-2zm2 0h2v2h-2zm2 0h2v2h-2zm4 0h2v2h-2zm12 0h2v2h-2zm-72 2h2v2h-2zm2 0h2v2h-2zm2 0h2v2h-2zm2 0h2v2h-2zm2 0h2v2h-2zm2 0h2v2h-2zm2 0h2v2h-2zm4 0h2v2h-2zm4 0h2v2h-2zm4 0h2v2h-2zm4 0h2v2h-2zm4 0h2v2h-2zm4 0h2v2h-2zm4 0h2v2h-2zm4 0h2v2h-2zm4 0h2v2h-2zm4 0h2v2h-2zm4 0h2v2h-2zm4 0h2v2h-2zm2 0h2v2h-2zm2 0h2v2h-2zm2 0h2v2h-2zm2 0h2v2h-2zm2 0h2v2h-2zm2 0h2v2h-2zm-48 2h2v2h-2zm2 0h2v2h-2zm4 0h2v2h-2zm6 0h2v2h-2zm6 0h2v2h-2zm2 0h2v2h-2zm2 0h2v2h-2zm2 0h2v2h-2zm4 0h2v2h-2zm-52 2h2v2h-2zm2 0h2v2h-2zm2 0h2v2h-2zm2 0h2v2h-2zm2 0h2v2h-2zm4 0h2v2h-2zm2 0h2v2h-2zm2 0h2v2h-2zm2 0h2v2h-2zm2 0h2v2h-2zm4 0h2v2h-2zm4 0h2v2h-2zm2 0h2v2h-2zm4 0h2v2h-2zm10 0h2v2h-2zm6 0h2v2h-2zm2 0h2v2h-2zm2 0h2v2h-2zm4 0h2v2h-2zm4 0h2v2h-2zm4 0h2v2h-2zm4 0h2v2h-2zm-68 2h2v2h-2zm4 0h2v2h-2zm4 0h2v2h-2zm6 0h2v2h-2zm2 0h2v2h-2zm12 0h2v2h-2zm2 0h2v2h-2zm4 0h2v2h-2zm2 0h2v2h-2zm2 0h2v2h-2zm6 0h2v2h-2zm4 0h2v2h-2zm6 0h2v2h-2zm2 0h2v2h-2zm4 0h2v2h-2zm4 0h2v2h-2zm2 0h2v2h-2zm2 0h2v2h-2zm-62 2h2v2h-2zm2 0h2v2h-2zm2 0h2v2h-2zm6 0h2v2h-2zm4 0h2v2h-2zm2 0h2v2h-2zm16 0h2v2h-2zm2 0h2v2h-2zm2 0h2v2h-2zm8 0h2v2h-2zm2 0h2v2h-2zm4 0h2v2h-2zm2 0h2v2h-2zm4 0h2v2h-2zm2 0h2v2h-2zm2 0h2v2h-2zm4 0h2v2h-2zm-70 2h2v2h-2zm2 0h2v2h-2zm2 0h2v2h-2zm4 0h2v2h-2zm4 0h2v2h-2zm2 0h2v2h-2zm2 0h2v2h-2zm2 0h2v2h-2zm2 0h2v2h-2zm6 0h2v2h-2zm4 0h2v2h-2zm8 0h2v2h-2zm2 0h2v2h-2zm2 0h2v2h-2zm2 0h2v2h-2zm6 0h2v2h-2zm4 0h2v2h-2zm2 0h2v2h-2zm2 0h2v2h-2zm6 0h2v2h-2zm4 0h2v2h-2zm-70 2h2v2h-2zm2 0h2v2h-2zm2 0h2v2h-2zm2 0h2v2h-2zm2 0h2v2h-2zm4 0h2v2h-2zm4 0h2v2h-2zm6 0h2v2h-2zm12 0h2v2h-2zm6 0h2v2h-2zm4 0h2v2h-2zm2 0h2v2h-2zm2 0h2v2h-2zm2 0h2v2h-2zm2 0h2v2h-2zm6 0h2v2h-2zm2 0h2v2h-2zm4 0h2v2h-2zm2 0h2v2h-2zm2 0h2v2h-2zm4 0h2v2h-2zm-70 2h2v2h-2zm2 0h2v2h-2zm6 0h2v2h-2zm6 0h2v2h-2zm2 0h2v2h-2zm6 0h2v2h-2zm2 0h2v2h-2zm2 0h2v2h-2zm2 0h2v2h-2zm6 0h2v2h-2zm2 0h2v2h-2zm2 0h2v2h-2zm2 0h2v2h-2zm4 0h2v2h-2zm2 0h2v2h-2zm10 0h2v2h-2zm4 0h2v2h-2zm6 0h2v2h-2zm2 0h2v2h-2zm-70 2h2v2h-2zm4 0h2v2h-2zm4 0h2v2h-2zm2 0h2v2h-2zm2 0h2v2h-2zm2 0h2v2h-2zm6 0h2v2h-2zm6 0h2v2h-2zm2 0h2v2h-2zm2 0h2v2h-2zm2 0h2v2h-2zm2 0h2v2h-2zm6 0h2v2h-2zm2 0h2v2h-2zm2 0h2v2h-2zm10 0h2v2h-2zm6 0h2v2h-2zm2 0h2v2h-2zm6 0h2v2h-2zm2 0h2v2h-2zm2 0h2v2h-2zm-66 2h2v2h-2zm2 0h2v2h-2zm16 0h2v2h-2zm2 0h2v2h-2zm6 0h2v2h-2zm6 0h2v2h-2zm4 0h2v2h-2zm2 0h2v2h-2zm2 0h2v2h-2zm2 0h2v2h-2zm4 0h2v2h-2zm2 0h2v2h-2zm2 0h2v2h-2zm2 0h2v2h-2zm4 0h2v2h-2zm4 0h2v2h-2zm6 0h2v2h-2zm-64 2h2v2h-2zm2 0h2v2h-2zm2 0h2v2h-2zm4 0h2v2h-2zm4 0h2v2h-2zm4 0h2v2h-2zm4 0h2v2h-2zm2 0h2v2h-2zm4 0h2v2h-2zm6 0h2v2h-2zm10 0h2v2h-2zm2 0h2v2h-2zm2 0h2v2h-2zm2 0h2v2h-2zm2 0h2v2h-2zm2 0h2v2h-2zm2 0h2v2h-2zm2 0h2v2h-2zm2 0h2v2h-2zm2 0h2v2h-2zm4 0h2v2h-2zm-72 2h2v2h-2zm2 0h2v2h-2zm2 0h2v2h-2zm2 0h2v2h-2zm2 0h2v2h-2zm8 0h2v2h-2zm2 0h2v2h-2zm14 0h2v2h-2zm6 0h2v2h-2zm2 0h2v2h-2zm6 0h2v2h-2zm6 0h2v2h-2zm4 0h2v2h-2zm6 0h2v2h-2zm6 0h2v2h-2zm2 0h2v2h-2zm-70 2h2v2h-2zm4 0h2v2h-2zm8 0h2v2h-2zm6 0h2v2h-2zm2 0h2v2h-2zm2 0h2v2h-2zm2 0h2v2h-2zm6 0h2v2h-2zm4 0h2v2h-2zm2 0h2v2h-2zm4 0h2v2h-2zm4 0h2v2h-2zm4 0h2v2h-2zm2 0h2v2h-2zm4 0h2v2h-2zm4 0h2v2h-2zm2 0h2v2h-2zm8 0h2v2h-2zm2 0h2v2h-2zm2 0h2v2h-2zm-70 2h2v2h-2zm6 0h2v2h-2zm8 0h2v2h-2zm4 0h2v2h-2zm2 0h2v2h-2zm6 0h2v2h-2zm2 0h2v2h-2zm6 0h2v2h-2zm6 0h2v2h-2zm2 0h2v2h-2zm2 0h2v2h-2zm2 0h2v2h-2zm8 0h2v2h-2zm2 0h2v2h-2zm2 0h2v2h-2zm4 0h2v2h-2zm8 0h2v2h-2zm-72 2h2v2h-2zm8 0h2v2h-2zm2 0h2v2h-2zm2 0h2v2h-2zm2 0h2v2h-2zm2 0h2v2h-2zm4 0h2v2h-2zm2 0h2v2h-2zm8 0h2v2h-2zm2 0h2v2h-2zm2 0h2v2h-2zm4 0h2v2h-2zm6 0h2v2h-2zm6 0h2v2h-2zm2 0h2v2h-2zm6 0h2v2h-2zm2 0h2v2h-2zm4 0h2v2h-2zm4 0h2v2h-2zm2 0h2v2h-2zm2 0h2v2h-2zm-72 2h2v2h-2zm4 0h2v2h-2zm4 0h2v2h-2zm2 0h2v2h-2zm4 0h2v2h-2zm4 0h2v2h-2zm2 0h2v2h-2zm4 0h2v2h-2zm2 0h2v2h-2zm2 0h2v2h-2zm4 0h2v2h-2zm4 0h2v2h-2zm2 0h2v2h-2zm2 0h2v2h-2zm6 0h2v2h-2zm6 0h2v2h-2zm4 0h2v2h-2zm2 0h2v2h-2zm4 0h2v2h-2zm4 0h2v2h-2zm4 0h2v2h-2zm-70 2h2v2h-2zm10 0h2v2h-2zm2 0h2v2h-2zm6 0h2v2h-2zm2 0h2v2h-2zm6 0h2v2h-2zm2 0h2v2h-2zm2 0h2v2h-2zm12 0h2v2h-2zm2 0h2v2h-2zm8 0h2v2h-2zm2 0h2v2h-2zm2 0h2v2h-2zm4 0h2v2h-2zm6 0h2v2h-2zm2 0h2v2h-2zm2 0h2v2h-2zm2 0h2v2h-2zm-72 2h2v2h-2zm6 0h2v2h-2zm2 0h2v2h-2zm10 0h2v2h-2zm2 0h2v2h-2zm4 0h2v2h-2zm2 0h2v2h-2zm12 0h2v2h-2zm2 0h2v2h-2zm2 0h2v2h-2zm2 0h2v2h-2zm10 0h2v2h-2zm2 0h2v2h-2zm6 0h2v2h-2zm10 0h2v2h-2zm-72 2h2v2h-2zm6 0h2v2h-2zm2 0h2v2h-2zm2 0h2v2h-2zm2 0h2v2h-2zm4 0h2v2h-2zm4 0h2v2h-2zm4 0h2v2h-2zm4 0h2v2h-2zm6 0h2v2h-2zm6 0h2v2h-2zm4 0h2v2h-2zm4 0h2v2h-2zm2 0h2v2h-2zm2 0h2v2h-2zm2 0h2v2h-2zm4 0h2v2h-2zm2 0h2v2h-2zm2 0h2v2h-2zm2 0h2v2h-2zm2 0h2v2h-2zm2 0h2v2h-2zm2 0h2v2h-2zm2 0h2v2h-2zm-72 2h2v2h-2zm4 0h2v2h-2zm2 0h2v2h-2zm4 0h2v2h-2zm4 0h2v2h-2zm18 0h2v2h-2zm6 0h2v2h-2zm2 0h2v2h-2zm2 0h2v2h-2zm4 0h2v2h-2zm4 0h2v2h-2zm6 0h2v2h-2zm6 0h2v2h-2zm4 0h2v2h-2zm4 0h2v2h-2zm-70 2h2v2h-2zm4 0h2v2h-2zm4 0h2v2h-2zm4 0h2v2h-2zm2 0h2v2h-2zm8 0h2v2h-2zm2 0h2v2h-2zm6 0h2v2h-2zm4 0h2v2h-2zm2 0h2v2h-2zm4 0h2v2h-2zm2 0h2v2h-2zm6 0h2v2h-2zm6 0h2v2h-2zm6 0h2v2h-2zm2 0h2v2h-2zm8 0h2v2h-2zm2 0h2v2h-2zm-72 2h2v2h-2zm6 0h2v2h-2zm4 0h2v2h-2zm4 0h2v2h-2zm2 0h2v2h-2zm2 0h2v2h-2zm4 0h2v2h-2zm6 0h2v2h-2zm4 0h2v2h-2zm6 0h2v2h-2zm2 0h2v2h-2zm2 0h2v2h-2zm2 0h2v2h-2zm8 0h2v2h-2zm2 0h2v2h-2zm2 0h2v2h-2zm2 0h2v2h-2zm6 0h2v2h-2zm8 0h2v2h-2zm-72 2h2v2h-2zm4 0h2v2h-2zm2 0h2v2h-2zm6 0h2v2h-2zm2 0h2v2h-2zm4 0h2v2h-2zm2 0h2v2h-2zm2 0h2v2h-2zm12 0h2v2h-2zm4 0h2v2h-2zm6 0h2v2h-2zm6 0h2v2h-2zm2 0h2v2h-2zm2 0h2v2h-2zm2 0h2v2h-2zm2 0h2v2h-2zm2 0h2v2h-2zm2 0h2v2h-2zm2 0h2v2h-2zm4 0h2v2h-2zm-52 2h2v2h-2zm4 0h2v2h-2zm4 0h2v2h-2zm2 0h2v2h-2zm2 0h2v2h-2zm10 0h2v2h-2zm4 0h2v2h-2zm2 0h2v2h-2zm2 0h2v2h-2zm4 0h2v2h-2zm6 0h2v2h-2zm8 0h2v2h-2zm-64 2h2v2h-2zm2 0h2v2h-2zm2 0h2v2h-2zm2 0h2v2h-2zm2 0h2v2h-2zm2 0h2v2h-2zm2 0h2v2h-2zm4 0h2v2h-2zm4 0h2v2h-2zm6 0h2v2h-2zm2 0h2v2h-2zm2 0h2v2h-2zm4 0h2v2h-2zm2 0h2v2h-2zm14 0h2v2h-2zm2 0h2v2h-2zm4 0h2v2h-2zm4 0h2v2h-2zm4 0h2v2h-2zm4 0h2v2h-2zm2 0h2v2h-2zm2 0h2v2h-2zm-72 2h2v2h-2zm12 0h2v2h-2zm12 0h2v2h-2zm2 0h2v2h-2zm6 0h2v2h-2zm6 0h2v2h-2zm4 0h2v2h-2zm2 0h2v2h-2zm12 0h2v2h-2zm8 0h2v2h-2zm2 0h2v2h-2zm4 0h2v2h-2zm-70 2h2v2h-2zm4 0h2v2h-2zm2 0h2v2h-2zm2 0h2v2h-2zm4 0h2v2h-2zm4 0h2v2h-2zm2 0h2v2h-2zm2 0h2v2h-2zm4 0h2v2h-2zm4 0h2v2h-2zm6 0h2v2h-2zm6 0h2v2h-2zm4 0h2v2h-2zm6 0h2v2h-2zm2 0h2v2h-2zm2 0h2v2h-2zm2 0h2v2h-2zm2 0h2v2h-2zm2 0h2v2h-2zm2 0h2v2h-2zm2 0h2v2h-2zm2 0h2v2h-2zm2 0h2v2h-2zm4 0h2v2h-2zm-72 2h2v2h-2zm4 0h2v2h-2zm2 0h2v2h-2zm2 0h2v2h-2zm4 0h2v2h-2zm4 0h2v2h-2zm16 0h2v2h-2zm2 0h2v2h-2zm2 0h2v2h-2zm2 0h2v2h-2zm2 0h2v2h-2zm2 0h2v2h-2zm2 0h2v2h-2zm2 0h2v2h-2zm6 0h2v2h-2zm2 0h2v2h-2zm2 0h2v2h-2zm2 0h2v2h-2zm2 0h2v2h-2zm4 0h2v2h-2zm4 0h2v2h-2zm2 0h2v2h-2zm2 0h2v2h-2zm-72 2h2v2h-2zm4 0h2v2h-2zm2 0h2v2h-2zm2 0h2v2h-2zm4 0h2v2h-2zm4 0h2v2h-2zm2 0h2v2h-2zm2 0h2v2h-2zm2 0h2v2h-2zm2 0h2v2h-2zm6 0h2v2h-2zm2 0h2v2h-2zm4 0h2v2h-2zm4 0h2v2h-2zm2 0h2v2h-2zm2 0h2v2h-2zm4 0h2v2h-2zm2 0h2v2h-2zm6 0h2v2h-2zm6 0h2v2h-2zm4 0h2v2h-2zm2 0h2v2h-2zm2 0h2v2h-2zm2 0h2v2h-2zm-72 2h2v2h-2zm12 0h2v2h-2zm4 0h2v2h-2zm2 0h2v2h-2zm4 0h2v2h-2zm6 0h2v2h-2zm4 0h2v2h-2zm8 0h2v2h-2zm2 0h2v2h-2zm10 0h2v2h-2zm2 0h2v2h-2zm2 0h2v2h-2zm2 0h2v2h-2zm4 0h2v2h-2zm2 0h2v2h-2zm8 0h2v2h-2zm-72 2h2v2h-2zm2 0h2v2h-2zm2 0h2v2h-2zm2 0h2v2h-2zm2 0h2v2h-2zm2 0h2v2h-2zm2 0h2v2h-2zm4 0h2v2h-2zm2 0h2v2h-2zm2 0h2v2h-2zm2 0h2v2h-2zm12 0h2v2h-2zm10 0h2v2h-2zm2 0h2v2h-2zm2 0h2v2h-2zm2 0h2v2h-2zm2 0h2v2h-2zm6 0h2v2h-2zm4 0h2v2h-2zm4 0h2v2h-2zm2 0h2v2h-2zm2 0h2v2h-2zm2 0h2v2h-2z"/></svg>